<svg fill="#7c7c7c" stroke="#ffffff" stroke-linecap="round" stroke-linejoin="round" stroke-width="2" baseprofile="tiny" version="1.2" viewBox="0 0 1000 1197" viewbox="0 0 1000 1197" xmlns="http://www.w3.org/2000/svg">
 <path id="oBuada" d="m567.5 677.5-12.8 89.9-198 88.8-101 85.9-42.3-72.3-34.2-116.1 13.7-95.6 68.3-68.3 157 41 149.3 46.7z" name="Buada">
  <title>Buada</title>
 </path>
 <path id="oBoe" d="m255.7 942.1-35.5 30.2-37.3 139.8-84.7-205.7 115.2-36.6 42.3 72.3z" name="Boe">
  <title>Okres Boe</title>
 </path>
 <path id="oAiwo" d="m213.4 869.8-115.2 36.6-97.2-235.9 191.9-12.4-13.7 95.6 34.2 116.1z" name="Aiwo">
  <title>Okres Aiwo</title>
 </path>
 <path id="oDenigomodu" d="m261.2 589.8-68.3 68.3-191.9 12.4 64.5-247.5 195.7 166.8z" name="Denigomodu">
  <title>Okres Denigomodu</title>
 </path>
 <path id="oNibok" d="m580.4 580.4-5.3 43.6-7.6 53.5-149.3-46.7-157-41-195.7-166.8 60.5-232.1 454.4 389.5z" name="Nibok">
  <title>Okres Nibok</title>
 </path>
 <path id="oUaboe" d="m589 508.7-8.6 71.7-454.4-389.5 90.3-34.7 372.7 352.5z" name="Uaboe">
  <title>Okres Uaboe</title>
 </path>
 <path id="oBaiti" d="m604.7 392.1-9.1 61.1-6.6 55.5-372.7-352.5 137.2-52.8 251.2 288.7z" name="Baiti">
  <title>Okres Baiti</title>
 </path>
 <rect id="denig" x="98.691" y="397.42" width="35.833" height="37.499" fill="#000080">
  <title>Denig</title>
 </rect>
 <rect id="aiwo" x="70.544" y="723.11" width="35.833" height="37.499" fill="#000080">
  <title>Aiwo</title>
 </rect>
 <path id="oEwa" d="m622.9 268.9-18.2 123.2-251.2-288.7 118-45.4 151.4 210.9z" name="Ewa">
  <title>Okres Ewa</title>
 </path>
 <path id="oAnetan" d="m622.9 268.9-151.4-210.9 148-57 3.4 267.9z" name="Anetan">
  <title>Anetan</title>
 </path>
 <path id="oAnabar" d="m945.4 148.2-322.5 120.7-3.4-267.9 325.9 147.2z" name="Anabar">
  <title>Okres Anabar</title>
 </path>
 <path id="oIjuw" d="m980.8 407.8-207.7-50.2-150.2-88.7 322.5-120.7 35.4 259.6z" name="Ijuw">
  <title>Okres Ijuw</title>
 </path>
 <path id="oAnibare" d="m980.8 407.8 16.8 123.4-98.3 305.6-153.5-21.6-191.1-47.8 12.8-89.9 7.6-53.5 5.3-43.6 8.6-71.7 6.6-55.5 9.1-61.1 18.2-123.2 150.2 88.7 207.7 50.2z" name="Anibare">
  <title>Okres Anibare</title>
 </path>
 <path id="oMeneng" d="m899.3 836.8-36.1 112.3-243.7 246.9-119.9-23.1-142.9-316.7 198-88.8 191.1 47.8 153.5 21.6z" name="Meneng">
  <title>Okres Meneng</title>
 </path>
 <path id="oYaren" d="m499.6 1172.9-316.7-60.8 37.3-139.8 35.5-30.2 101-85.9 142.9 316.7z" name="Yaren">
  <title>Okres Yaren</title>
 </path>
 <circle cx="891" cy="349.6"/>
 <circle cx="675" cy="268.5"/>
 <circle cx="999" cy="565.7"/>
 <g fill="#000080">
  <rect id="yaren" x="233.21" y="1015.3" width="58.304" height="52.272" stroke-width="2">
   <title>Yaren</title>
  </rect>
  <rect id="menang" x="657.78" y="1038.1" width="35.833" height="37.499">
   <title>Menang</title>
  </rect>
  <rect id="Ijuw" x="900.87" y="260.71" width="35.833" height="37.499">
   <title>Ijuw</title>
  </rect>
  <rect id="anabar" x="826.48" y="103.89" width="35.833" height="37.499">
   <title>Anabar</title>
  </rect>
  <rect id="uaboe" x="370.1" y="123.99" width="35.833" height="37.499">
   <title>Uaboe</title>
  </rect>
 </g>
</svg>
